<svg version="1.1" viewBox="0.0 0.0 920.7716535433071 830.9186351706037" fill="none" stroke="none" stroke-linecap="square" stroke-miterlimit="10" xmlns:xlink="http://www.w3.org/1999/xlink" xmlns="http://www.w3.org/2000/svg"><clipPath id="p.0"><path d="m0 0l920.77167 0l0 830.91864l-920.77167 0l0 -830.91864z" clip-rule="nonzero"/></clipPath><g clip-path="url(#p.0)"><path fill="#000000" fill-opacity="0.0" d="m0 0l920.77167 0l0 830.91864l-920.77167 0z" fill-rule="evenodd"/><path fill="#e32800" d="m-493.76538 255.07349l298.80316 0l0 298.80316l-298.80316 0z" fill-rule="evenodd"/><path fill="#000000" fill-opacity="0.0" d="m13.108924 251.43701l894.55115 0l0 261.7953l-894.55115 0z" fill-rule="evenodd"/><path fill="#2f2a29" d="m109.921425 338.53076l57.781242 0l-43.218742 47.203125l42.343742 66.703125l-55.093742 0l-20.703125 -33.765625l-8.8125 8.5625l0 25.203125l-48.109375 0l0 -153.51562l48.109375 0l0 72.71875l27.703125 -33.109375zm134.54065 -2.40625q20.25 0 30.59375 11.484375q10.359375 11.484375 10.359375 32.265625l0 72.5625l-48.109375 0l0 -67.75q0 -5.28125 -2.390625 -8.0625q-2.375 -2.78125 -6.84375 -2.78125q-5.640625 0 -9.046875 3.5625q-3.40625 3.546875 -3.40625 8.875l0 66.15625l-48.109375 0l0 -113.90625l40.28125 0l1.59375 9.75q0.9375 -1.28125 11.921875 -6.71875q10.984375 -5.4375 23.15625 -5.4375z" fill-rule="nonzero"/><path fill="#ffffff" d="m359.65897 336.1245q29.390625 0 46.578125 15.25q17.1875 15.234375 17.1875 44.109375q0 28.875 -17.1875 44.125q-17.1875 15.234375 -46.578125 15.234375q-29.375 0 -46.46875 -15.140625q-17.078125 -15.140625 -17.078125 -44.21875q0 -29.078125 17.078125 -44.21875q17.09375 -15.140625 46.46875 -15.140625zm0 35.3125q-15.4375 0 -15.4375 18.4375l0 11.40625q0 18.25 15.4375 18.25q15.65625 0 15.65625 -18.25l0 -11.40625q0 -18.4375 -15.65625 -18.4375z" fill-rule="nonzero"/><path fill="#2f2a29" d="m493.059 336.1245q27.296906 0 44.828156 12.09375q17.53125 12.078125 17.53125 41.21875l-46.90628 0q0 -18.0 -15.453125 -18.0q-15.4375 0 -15.4375 18.4375l0 11.40625q0 18.25 16.25 18.25q16.234375 0 16.234375 -18.40625l45.31253 0q0 29.328125 -17.53125 41.53125q-17.53125 12.1875 -44.828156 12.1875q-29.375 0 -46.46875 -15.140625q-17.078125 -15.140625 -17.078125 -44.21875q0 -29.078125 17.078125 -44.21875q17.09375 -15.140625 46.46875 -15.140625zm147.06253 2.40625l57.78125 0l-43.21875 47.203125l42.34375 66.703125l-55.09375 0l-20.703125 -33.765625l-8.8125 8.5625l0 25.203125l-48.109375 0l0 -153.51562l48.109375 0l0 72.71875l27.703125 -33.109375zm58.993774 -4.09375l0 -35.3125l48.109375 0l0 35.3125l-48.109375 0zm0 118.0l0 -113.90625l48.109375 0l0 113.90625l-48.109375 0zm142.14691 -116.3125q20.25 0 30.59375 11.484375q10.359375 11.484375 10.359375 32.265625l0 72.5625l-48.109375 0l0 -67.75q0 -5.28125 -2.390625 -8.0625q-2.375 -2.78125 -6.84375 -2.78125q-5.640625 0 -9.046875 3.5625q-3.40625 3.546875 -3.40625 8.875l0 66.15625l-48.109375 0l0 -113.90625l40.28125 0l1.59375 9.75q0.9375 -1.28125 11.921875 -6.71875q10.984375 -5.4375 23.15625 -5.4375z" fill-rule="nonzero"/><path fill="#000000" fill-opacity="0.0" d="m-945.958 1970.4619l894.5512 0l0 261.7954l-894.5512 0z" fill-rule="evenodd"/><path fill="#2f2a29" d="m-849.1455 2057.5557l57.78125 0l-43.21875 47.203125l42.34375 66.703125l-55.09375 0l-20.703125 -33.765625l-8.8125 8.5625l0 25.203125l-48.109375 0l0 -153.51562l48.109375 0l0 72.71875l27.703125 -33.109375zm134.54065 -2.40625q20.25 0 30.59375 11.484375q10.359375 11.484375 10.359375 32.265625l0 72.5625l-48.109375 0l0 -67.75q0 -5.28125 -2.390625 -8.0625q-2.375 -2.78125 -6.84375 -2.78125q-5.640625 0 -9.046875 3.5625q-3.40625 3.546875 -3.40625 8.875l0 66.15625l-48.109375 0l0 -113.90625l40.28125 0l1.59375 9.75q0.9375 -1.28125 11.921875 -6.71875q10.984375 -5.4375 23.15625 -5.4375zm248.39697 0q27.296875 0 44.828125 12.09375q17.53125 12.078125 17.53125 41.21875l-46.90625 0q0 -18.0 -15.453125 -18.0q-15.4375 0 -15.4375 18.4375l0 11.40625q0 18.25 16.25 18.25q16.234375 0 16.234375 -18.40625l45.3125 0q0 29.328125 -17.53125 41.53125q-17.53125 12.1875 -44.828125 12.1875q-29.375 0 -46.46875 -15.140625q-17.078125 -15.140625 -17.078125 -44.21875q0 -29.078125 17.078125 -44.21875q17.09375 -15.140625 46.46875 -15.140625zm147.0625 2.40625l57.78125 0l-43.21875 47.203125l42.34375 66.703125l-55.09375 0l-20.703125 -33.765625l-8.8125 8.5625l0 25.203125l-48.109375 0l0 -153.51562l48.109375 0l0 72.71875l27.703125 -33.109375zm58.993774 -4.09375l0 -35.3125l48.109375 0l0 35.3125l-48.109375 0zm0 118.0l0 -113.90625l48.109375 0l0 113.90625l-48.109375 0zm142.14691 -116.3125q20.25 0 30.59375 11.484375q10.359375 11.484375 10.359375 32.265625l0 72.5625l-48.109375 0l0 -67.75q0 -5.28125 -2.390625 -8.0625q-2.375 -2.78125 -6.84375 -2.78125q-5.640625 0 -9.046875 3.5625q-3.40625 3.546875 -3.40625 8.875l0 66.15625l-48.109375 0l0 -113.90625l40.28125 0l1.59375 9.75q0.9375 -1.28125 11.921875 -6.71875q10.984375 -5.4375 23.15625 -5.4375z" fill-rule="nonzero"/><path fill="#e32800" d="m-645.4845 2052.6199l113.44879 30.393555l-28.75592 107.33862l-113.44879 -30.393555z" fill-rule="evenodd"/><path fill="#0000ff" d="m-1408.7821 602.8819l130.89758 0l0 130.89764l-130.89758 0z" fill-rule="evenodd"/><path stroke="#000000" stroke-width="1.0" stroke-linejoin="round" stroke-linecap="butt" d="m-1408.7821 602.8819l130.89758 0l0 130.89764l-130.89758 0z" fill-rule="evenodd"/><path fill="#d8ddff" d="m-1146.9868 602.8819l130.89758 0l0 130.89764l-130.89758 0z" fill-rule="evenodd"/><path stroke="#000000" stroke-width="1.0" stroke-linejoin="round" stroke-linecap="butt" d="m-1146.9868 602.8819l130.89758 0l0 130.89764l-130.89758 0z" fill-rule="evenodd"/><path fill="#c4ff6e" d="m-1277.8845 602.8819l130.8977 0l0 130.89764l-130.8977 0z" fill-rule="evenodd"/><path stroke="#000000" stroke-width="1.0" stroke-linejoin="round" stroke-linecap="butt" d="m-1277.8845 602.8819l130.8977 0l0 130.89764l-130.8977 0z" fill-rule="evenodd"/><path fill="#cccccc" d="m-1016.08923 602.8819l130.89764 0l0 130.89764l-130.89764 0z" fill-rule="evenodd"/><path stroke="#000000" stroke-width="1.0" stroke-linejoin="round" stroke-linecap="butt" d="m-1016.08923 602.8819l130.89764 0l0 130.89764l-130.89764 0z" fill-rule="evenodd"/><path fill="#f3f3f3" d="m-885.1916 602.8819l130.89764 0l0 130.89764l-130.89764 0z" fill-rule="evenodd"/><path stroke="#000000" stroke-width="1.0" stroke-linejoin="round" stroke-linecap="butt" d="m-885.1916 602.8819l130.89764 0l0 130.89764l-130.89764 0z" fill-rule="evenodd"/><path fill="#4f4e9e" d="m-1408.7821 747.7336l130.89758 0l0 130.89764l-130.89758 0z" fill-rule="evenodd"/><path stroke="#000000" stroke-width="1.0" stroke-linejoin="round" stroke-linecap="butt" d="m-1408.7821 747.7336l130.89758 0l0 130.89764l-130.89758 0z" fill-rule="evenodd"/><path fill="#4468bf" d="m-1146.9868 747.7336l130.89758 0l0 130.89764l-130.89758 0z" fill-rule="evenodd"/><path stroke="#000000" stroke-width="1.0" stroke-linejoin="round" stroke-linecap="butt" d="m-1146.9868 747.7336l130.89758 0l0 130.89764l-130.89758 0z" fill-rule="evenodd"/><path fill="#e45e5f" d="m-1277.8845 747.7336l130.8977 0l0 130.89764l-130.8977 0z" fill-rule="evenodd"/><path stroke="#000000" stroke-width="1.0" stroke-linejoin="round" stroke-linecap="butt" d="m-1277.8845 747.7336l130.8977 0l0 130.89764l-130.8977 0z" fill-rule="evenodd"/><path fill="#73c3c5" d="m-1016.08923 747.7336l130.89764 0l0 130.89764l-130.89764 0z" fill-rule="evenodd"/><path stroke="#000000" stroke-width="1.0" stroke-linejoin="round" stroke-linecap="butt" d="m-1016.08923 747.7336l130.89764 0l0 130.89764l-130.89764 0z" fill-rule="evenodd"/><path fill="#ebebeb" d="m-885.1916 747.7336l130.89764 0l0 130.89764l-130.89764 0z" fill-rule="evenodd"/><path stroke="#000000" stroke-width="1.0" stroke-linejoin="round" stroke-linecap="butt" d="m-885.1916 747.7336l130.89764 0l0 130.89764l-130.89764 0z" fill-rule="evenodd"/><path fill="#2f34ab" d="m-1408.7821 892.5866l130.89758 0l0 130.89764l-130.89758 0z" fill-rule="evenodd"/><path stroke="#000000" stroke-width="1.0" stroke-linejoin="round" stroke-linecap="butt" d="m-1408.7821 892.5866l130.89758 0l0 130.89764l-130.89758 0z" fill-rule="evenodd"/><path fill="#ed3800" d="m-1146.9868 892.5866l130.89758 0l0 130.89764l-130.89758 0z" fill-rule="evenodd"/><path stroke="#000000" stroke-width="1.0" stroke-linejoin="round" stroke-linecap="butt" d="m-1146.9868 892.5866l130.89758 0l0 130.89764l-130.89758 0z" fill-rule="evenodd"/><path fill="#6782d8" d="m-1277.8845 892.5866l130.8977 0l0 130.89764l-130.8977 0z" fill-rule="evenodd"/><path stroke="#000000" stroke-width="1.0" stroke-linejoin="round" stroke-linecap="butt" d="m-1277.8845 892.5866l130.8977 0l0 130.89764l-130.8977 0z" fill-rule="evenodd"/><path fill="#1d1d1d" d="m-1016.08923 892.5866l130.89764 0l0 130.89764l-130.89764 0z" fill-rule="evenodd"/><path stroke="#000000" stroke-width="1.0" stroke-linejoin="round" stroke-linecap="butt" d="m-1016.08923 892.5866l130.89764 0l0 130.89764l-130.89764 0z" fill-rule="evenodd"/><path fill="#ffffff" d="m-885.1916 892.5866l130.89764 0l0 130.89764l-130.89764 0z" fill-rule="evenodd"/><path stroke="#000000" stroke-width="1.0" stroke-linejoin="round" stroke-linecap="butt" d="m-885.1916 892.5866l130.89764 0l0 130.89764l-130.89764 0z" fill-rule="evenodd"/><path fill="#f17f00" d="m-1080.1627 -110.227036l130.89764 0l0 130.89764l-130.89764 0z" fill-rule="evenodd"/><path stroke="#000000" stroke-width="1.0" stroke-linejoin="round" stroke-linecap="butt" d="m-1080.1627 -110.227036l130.89764 0l0 130.89764l-130.89764 0z" fill-rule="evenodd"/><path fill="#d8ddff" d="m-818.36743 -110.227036l130.89764 0l0 130.89764l-130.89764 0z" fill-rule="evenodd"/><path stroke="#000000" stroke-width="1.0" stroke-linejoin="round" stroke-linecap="butt" d="m-818.36743 -110.227036l130.89764 0l0 130.89764l-130.89764 0z" fill-rule="evenodd"/><path fill="#ec2500" d="m-949.2651 -110.227036l130.89764 0l0 130.89764l-130.89764 0z" fill-rule="evenodd"/><path stroke="#000000" stroke-width="1.0" stroke-linejoin="round" stroke-linecap="butt" d="m-949.2651 -110.227036l130.89764 0l0 130.89764l-130.89764 0z" fill-rule="evenodd"/><path fill="#2f2a29" d="m-1205.4199 -110.227036l130.89758 0l0 130.89764l-130.89758 0z" fill-rule="evenodd"/><path stroke="#000000" stroke-width="1.0" stroke-linejoin="round" stroke-linecap="butt" d="m-1205.4199 -110.227036l130.89758 0l0 130.89764l-130.89758 0z" fill-rule="evenodd"/><path fill="#ffffff" d="m-1336.3176 -110.227036l130.8977 0l0 130.89764l-130.8977 0z" fill-rule="evenodd"/><path stroke="#000000" stroke-width="1.0" stroke-linejoin="round" stroke-linecap="butt" d="m-1336.3176 -110.227036l130.8977 0l0 130.89764l-130.8977 0z" fill-rule="evenodd"/><path fill="#e32800" d="m-649.41406 1588.494l113.44885 30.393677l-28.75592 107.33862l-113.44879 -30.393677z" fill-rule="evenodd"/><defs><linearGradient id="p.1" gradientUnits="userSpaceOnUse" gradientTransform="matrix(0.0 -12.290456588895763 12.290456588895763 0.0 0.0 0.0)" spreadMethod="pad" x1="-137.35044953968432" y1="-51.39447975806078" x2="-137.3504895809945" y2="-39.10402316923024"><stop offset="0.0" stop-color="#bfbfbf"/><stop offset="0.5" stop-color="#bfbfbf" stop-opacity="0.0"/><stop offset="0.50000006" stop-color="#ffffff" stop-opacity="0.0"/><stop offset="1.0" stop-color="#ffffff" stop-opacity="0.0"/></linearGradient></defs><path fill="url(#p.1)" d="m-605.53534 1688.0997l0 0c14.429016 0 26.126038 -13.762817 26.126038 -30.740112c0 -16.977417 -11.6970215 -30.740234 -26.126038 -30.740234l98.80298 0c14.429016 0 26.126068 13.762817 26.126068 30.740234c0 16.977295 -11.697052 30.740112 -26.126068 30.740112z" fill-rule="evenodd"/><defs><linearGradient id="p.2" gradientUnits="userSpaceOnUse" gradientTransform="matrix(0.0 -12.290456588895763 12.290456588895763 0.0 0.0 0.0)" spreadMethod="pad" x1="-137.35044953968432" y1="-51.39447975806078" x2="-137.3504895809945" y2="-39.10402316923024"><stop offset="0.0" stop-color="#bfbfbf"/><stop offset="0.5" stop-color="#bfbfbf" stop-opacity="0.0"/><stop offset="0.50000006" stop-color="#ffffff" stop-opacity="0.0"/><stop offset="1.0" stop-color="#ffffff" stop-opacity="0.0"/></linearGradient></defs><path fill="url(#p.2)" d="m-605.53534 1688.0997l0 0c-14.429016 0 -26.126099 -13.762817 -26.126099 -30.740112c0 -16.977417 11.6970825 -30.740234 26.126099 -30.740234l0 0c14.429016 0 26.126038 13.762817 26.126038 30.740234c0 16.977295 -11.6970215 30.740112 -26.126038 30.740112z" fill-rule="evenodd"/><path fill="#000000" fill-opacity="0.0" d="m-605.53534 1626.6194l0 0c14.429016 0 26.126038 13.762817 26.126038 30.740234c0 16.977295 -11.6970215 30.740112 -26.126038 30.740112l0 0c-14.429016 0 -26.126099 -13.762817 -26.126099 -30.740112c0 -16.977417 11.6970825 -30.740234 26.126099 -30.740234l98.80298 0c14.429016 0 26.126068 13.762817 26.126068 30.740234c0 16.977295 -11.697052 30.740112 -26.126068 30.740112l-98.80298 0" fill-rule="evenodd"/><path fill="#ffffff" fill-opacity="0.4" d="m-605.53534 1688.0997l0 0c-14.429016 0 -26.126099 -13.762817 -26.126099 -30.740112c0 -16.977417 11.6970825 -30.740234 26.126099 -30.740234l0 0c14.429016 0 26.126038 13.762817 26.126038 30.740234c0 16.977295 -11.6970215 30.740112 -26.126038 30.740112z" fill-rule="evenodd"/><path fill="#ffffff" d="m-631.66144 1657.3701l0 0c0 -16.977417 11.7323 -30.740234 26.204773 -30.740234l0 0c6.94989 0 13.615173 3.2387695 18.52948 9.003662c4.9143677 5.7648926 7.675232 13.58374 7.675232 21.736572l0 0c0 16.977295 -11.7323 30.740112 -26.204712 30.740112l0 0c-14.472473 0 -26.204773 -13.762817 -26.204773 -30.740112z" fill-rule="evenodd"/><path fill="#ffffff" d="m-653.5497 1883.824l0 0c24.281982 6.5046387 38.71472 31.446167 32.260803 55.750366l-12.074036 -3.2073975c4.685791 -17.64563 -5.7910767 -35.753418 -23.418335 -40.475464z" fill-rule="evenodd"/><path fill="#000000" fill-opacity="0.0" d="m-950.60895 1743.4226l894.5512 0l0 261.7953l-894.5512 0z" fill-rule="evenodd"/><path fill="#2f2a29" d="m-853.79645 1830.5164l57.78125 0l-43.21875 47.203125l42.34375 66.703125l-55.09375 0l-20.703125 -33.765625l-8.8125 8.5625l0 25.203125l-48.109375 0l0 -153.51562l48.109375 0l0 72.71875l27.703125 -33.109375zm134.54065 -2.40625q20.25 0 30.59375 11.484375q10.359375 11.484375 10.359375 32.265625l0 72.5625l-48.109375 0l0 -67.75q0 -5.28125 -2.390625 -8.0625q-2.375 -2.78125 -6.84375 -2.78125q-5.640625 0 -9.046875 3.5625q-3.40625 3.546875 -3.40625 8.875l0 66.15625l-48.109375 0l0 -113.90625l40.28125 0l1.59375 9.75q0.9375 -1.28125 11.921875 -6.71875q10.984375 -5.4375 23.15625 -5.4375zm248.397 0q27.296875 0 44.828125 12.09375q17.53125 12.078125 17.53125 41.21875l-46.90625 0q0 -18.0 -15.453125 -18.0q-15.4375 0 -15.4375 18.4375l0 11.40625q0 18.25 16.25 18.25q16.234375 0 16.234375 -18.40625l45.3125 0q0 29.328125 -17.53125 41.53125q-17.53125 12.1875 -44.828125 12.1875q-29.375 0 -46.46878 -15.140625q-17.078125 -15.140625 -17.078125 -44.21875q0 -29.078125 17.078125 -44.21875q17.09378 -15.140625 46.46878 -15.140625zm147.0625 2.40625l57.78125 0l-43.21875 47.203125l42.34375 66.703125l-55.09375 0l-20.703125 -33.765625l-8.8125 8.5625l0 25.203125l-48.109375 0l0 -153.51562l48.109375 0l0 72.71875l27.703125 -33.109375zm58.993774 -4.09375l0 -35.3125l48.109375 0l0 35.3125l-48.109375 0zm0 118.0l0 -113.90625l48.109375 0l0 113.90625l-48.109375 0zm142.14691 -116.3125q20.25 0 30.59375 11.484375q10.359375 11.484375 10.359375 32.265625l0 72.5625l-48.109367 0l0 -67.75q0 -5.28125 -2.390625 -8.0625q-2.375 -2.78125 -6.84375 -2.78125q-5.640625 0 -9.046875 3.5625q-3.40625 3.546875 -3.40625 8.875l0 66.15625l-48.109375 0l0 -113.90625l40.28125 0l1.59375 9.75q0.9375 -1.28125 11.921875 -6.71875q10.984375 -5.4375 23.156242 -5.4375z" fill-rule="nonzero"/><path fill="#ffffff" d="m-662.4847 1919.5101l0 0c1.3220215 -4.9313965 6.3914185 -7.857422 11.322815 -6.5354004l0 0c2.368164 0.6348877 4.387146 2.1844482 5.612732 4.3078613c1.225647 2.1235352 1.5575562 4.6468506 0.9227295 7.0150146l0 0c-1.3220215 4.9313965 -6.3914185 7.857422 -11.322876 6.5354004l0 0c-4.9313965 -1.3220215 -7.857422 -6.3913574 -6.5354004 -11.322876z" fill-rule="evenodd"/><path fill="#e32800" d="m-650.13544 1825.5804l113.44879 30.393677l-28.75586 107.33862l-113.44885 -30.393799z" fill-rule="evenodd"/><path fill="#ffffff" d="m-710.06824 1925.7375l0 0c0 -24.700684 20.023804 -44.724365 44.724426 -44.724365l0 0c11.861633 0 23.237488 4.711914 31.624939 13.099365c8.387451 8.387451 13.099426 19.763306 13.099426 31.625l0 0c0 24.700562 -20.023804 44.724365 -44.724365 44.724365l0 0c-24.700623 0 -44.724426 -20.023804 -44.724426 -44.724365z" fill-rule="evenodd"/><path fill="#ffffff" d="m-647.3962 1860.8203l0 0c36.86023 9.868652 58.844055 47.63867 49.219727 84.56348l-13.112061 -3.4176025l0 0c7.7456665 -29.717041 -9.94696 -60.11438 -39.61206 -68.05664z" fill-rule="evenodd"/><path fill="#000000" fill-opacity="0.0" d="m-950.60895 1514.6956l894.5512 0l0 261.7953l-894.5512 0z" fill-rule="evenodd"/><path fill="#2f2a29" d="m-853.79645 1601.7893l57.78125 0l-43.21875 47.203125l42.34375 66.703125l-55.09375 0l-20.703125 -33.765625l-8.8125 8.5625l0 25.203125l-48.109375 0l0 -153.51562l48.109375 0l0 72.71875l27.703125 -33.109375zm134.54065 -2.40625q20.25 0 30.59375 11.484375q10.359375 11.484375 10.359375 32.265625l0 72.5625l-48.109375 0l0 -67.75q0 -5.28125 -2.390625 -8.0625q-2.375 -2.78125 -6.84375 -2.78125q-5.640625 0 -9.046875 3.5625q-3.40625 3.546875 -3.40625 8.875l0 66.15625l-48.109375 0l0 -113.90625l40.28125 0l1.59375 9.75q0.9375 -1.28125 11.921875 -6.71875q10.984375 -5.4375 23.15625 -5.4375zm248.397 0q27.296875 0 44.828125 12.09375q17.53125 12.078125 17.53125 41.21875l-46.90625 0q0 -18.0 -15.453125 -18.0q-15.4375 0 -15.4375 18.4375l0 11.40625q0 18.25 16.25 18.25q16.234375 0 16.234375 -18.40625l45.3125 0q0 29.328125 -17.53125 41.53125q-17.53125 12.1875 -44.828125 12.1875q-29.375 0 -46.46878 -15.140625q-17.078125 -15.140625 -17.078125 -44.21875q0 -29.078125 17.078125 -44.21875q17.09378 -15.140625 46.46878 -15.140625zm147.0625 2.40625l57.78125 0l-43.21875 47.203125l42.34375 66.703125l-55.09375 0l-20.703125 -33.765625l-8.8125 8.5625l0 25.203125l-48.109375 0l0 -153.51562l48.109375 0l0 72.71875l27.703125 -33.109375zm58.993774 -4.09375l0 -35.3125l48.109375 0l0 35.3125l-48.109375 0zm0 118.0l0 -113.90625l48.109375 0l0 113.90625l-48.109375 0zm142.14691 -116.3125q20.25 0 30.59375 11.484375q10.359375 11.484375 10.359375 32.265625l0 72.5625l-48.109367 0l0 -67.75q0 -5.28125 -2.390625 -8.0625q-2.375 -2.78125 -6.84375 -2.78125q-5.640625 0 -9.046875 3.5625q-3.40625 3.546875 -3.40625 8.875l0 66.15625l-48.109375 0l0 -113.90625l40.28125 0l1.59375 9.75q0.9375 -1.28125 11.921875 -6.71875q10.984375 -5.4375 23.156242 -5.4375z" fill-rule="nonzero"/><path fill="#000000" fill-opacity="0.0" d="m-811.03674 1743.4226l314.96063 0l0 261.7953l-314.96063 0z" fill-rule="evenodd"/><path fill="#2f2a29" d="m-713.0836 1828.1101q20.25 0 30.59375 11.484375q10.359375 11.484375 10.359375 32.265625l0 72.5625l-48.109375 0l0 -67.75q0 -5.28125 -2.390625 -8.0625q-2.375 -2.78125 -6.84375 -2.78125q-5.640625 0 -9.046875 3.5625q-3.40625 3.546875 -3.40625 8.875l0 66.15625l-48.109375 0l0 -113.90625l40.28125 0l1.59375 9.75q0.9375 -1.28125 11.921875 -6.71875q10.984375 -5.4375 23.15625 -5.4375z" fill-rule="nonzero"/><path fill="#ffffff" d="m-642.51465 2095.7456l0 0c30.799255 8.250488 49.105713 39.88623 40.919556 70.71387l-15.314636 -4.0683594c5.9434204 -22.381592 -7.345398 -45.34961 -29.703796 -51.33911z" fill-rule="evenodd"/><path fill="#ffffff" d="m-634.7096 2066.5679l0 0c46.75354 12.517334 74.63788 60.424805 62.43036 107.260254l-16.631348 -4.334961l0 0c9.824585 -37.693115 -12.61676 -76.24902 -50.243958 -86.323z" fill-rule="evenodd"/><path fill="#ffffff" d="m-653.84784 2141.01l0 0c1.6768188 -6.255127 8.106873 -9.966309 14.361877 -8.289551l0 0c3.0037842 0.8051758 5.564636 2.770752 7.1192017 5.4641113c1.5546265 2.6933594 1.9755859 5.894043 1.1703491 8.897705l0 0c-1.6768188 6.255127 -8.106873 9.966553 -14.361877 8.289551l0 0c-6.255005 -1.6767578 -9.96637 -8.106689 -8.289551 -14.361816z" fill-rule="evenodd"/><path fill="#db2b00" d="m316.38882 354.55112l0 0c55.9458 0 101.331604 45.305023 101.44861 101.26807l-27.803009 0.058166504l0 0c-0.08493042 -40.630585 -33.032288 -73.52316 -73.6456 -73.52316z" fill-rule="evenodd"/><path fill="#db2b00" d="m317.75446 436.4l0 0c0 -11.358795 9.20813 -20.566925 20.566925 -20.566925l0 0c5.4546814 0 10.685974 2.16687 14.54303 6.023926c3.8570251 3.8570251 6.0238953 9.088318 6.0238953 14.542999l0 0c0 11.358795 -9.20813 20.566925 -20.566925 20.566925l0 0c-11.358795 0 -20.566925 -9.20813 -20.566925 -20.566925z" fill-rule="evenodd"/><path fill="#000000" fill-opacity="0.0" d="m-926.4619 1277.0735l894.55115 0l0 261.7953l-894.55115 0z" fill-rule="evenodd"/><path fill="#2f2a29" d="m-829.6494 1364.1672l57.78125 0l-43.21875 47.203125l42.34375 66.703125l-55.09375 0l-20.703125 -33.765625l-8.8125 8.5625l0 25.203125l-48.109375 0l0 -153.51562l48.109375 0l0 72.71875l27.703125 -33.109375zm134.54065 -2.40625q20.25 0 30.59375 11.484375q10.359375 11.484375 10.359375 32.265625l0 72.5625l-48.109375 0l0 -67.75q0 -5.28125 -2.390625 -8.0625q-2.375 -2.78125 -6.84375 -2.78125q-5.640625 0 -9.046875 3.5625q-3.40625 3.546875 -3.40625 8.875l0 66.15625l-48.109375 0l0 -113.90625l40.28125 0l1.59375 9.75q0.9375 -1.28125 11.921875 -6.71875q10.984375 -5.4375 23.15625 -5.4375zm115.1969 0q29.390625 0 46.578125 15.25q17.1875 15.234375 17.1875 44.109375q0 28.875 -17.1875 44.125q-17.1875 15.234375 -46.578125 15.234375q-29.375 0 -46.46875 -15.140625q-17.078125 -15.140625 -17.078125 -44.21875q0 -29.078125 17.078125 -44.21875q17.09375 -15.140625 46.46875 -15.140625zm0 35.3125q-15.4375 0 -15.4375 18.4375l0 11.40625q0 18.25 15.4375 18.25q15.65625 0 15.65625 -18.25l0 -11.40625q0 -18.4375 -15.65625 -18.4375zm133.4 -35.3125q27.296875 0 44.828125 12.09375q17.53125 12.078125 17.53125 41.21875l-46.90625 0q0 -18.0 -15.453125 -18.0q-15.4375 0 -15.4375 18.4375l0 11.40625q0 18.25 16.25 18.25q16.234375 0 16.234375 -18.40625l45.3125 0q0 29.328125 -17.53125 41.53125q-17.53125 12.1875 -44.828125 12.1875q-29.375 0 -46.46875 -15.140625q-17.078125 -15.140625 -17.078125 -44.21875q0 -29.078125 17.078125 -44.21875q17.09375 -15.140625 46.46875 -15.140625zm147.0625 2.40625l57.78125 0l-43.21875 47.203125l42.34375 66.703125l-55.09375 0l-20.703125 -33.765625l-8.8125 8.5625l0 25.203125l-48.109375 0l0 -153.51562l48.109375 0l0 72.71875l27.703125 -33.109375zm58.993774 -4.09375l0 -35.3125l48.109375 0l0 35.3125l-48.109375 0zm0 118.0l0 -113.90625l48.109375 0l0 113.90625l-48.109375 0zm142.14691 -116.3125q20.25 0 30.59375 11.484375q10.359379 11.484375 10.359379 32.265625l0 72.5625l-48.10938 0l0 -67.75q0 -5.28125 -2.390625 -8.0625q-2.375 -2.78125 -6.84375 -2.78125q-5.640625 0 -9.046875 3.5625q-3.40625 3.546875 -3.40625 8.875l0 66.15625l-48.109375 0l0 -113.90625l40.28125 0l1.59375 9.75q0.9375 -1.28125 11.921875 -6.71875q10.984375 -5.4375 23.15625 -5.4375z" fill-rule="nonzero"/><path fill="#db2b00" d="m-562.3727 1383.4226l0 0c0 -12.506836 10.138794 -22.64563 22.64563 -22.64563l0 0c6.0060425 0 11.766052 2.3858643 16.01294 6.6326904c4.246887 4.2469482 6.6327515 10.006958 6.6327515 16.01294l0 0c0 12.506836 -10.138794 22.64563 -22.64569 22.64563l0 0c-12.506836 0 -22.64563 -10.138794 -22.64563 -22.64563z" fill-rule="evenodd"/><path fill="#db2b00" d="m-454.12167 985.49994l0 0c55.9458 0 101.331604 45.304993 101.44861 101.26813l-27.803009 0.05810547l0 0c-0.08493042 -40.630615 -33.032288 -73.52319 -73.6456 -73.52319z" fill-rule="evenodd"/><path fill="#db2b00" d="m-452.75604 1067.3489l0 0c0 -11.358887 9.20813 -20.567017 20.566925 -20.567017l0 0c5.4546814 0 10.685974 2.16687 14.54303 6.023926c3.8570251 3.8570557 6.0238953 9.088379 6.0238953 14.543091l0 0c0 11.358765 -9.20813 20.566895 -20.566925 20.566895l0 0c-11.358795 0 -20.566925 -9.20813 -20.566925 -20.566895z" fill-rule="evenodd"/><path fill="#ffffff" d="m-421.468 309.03568l0 0c93.11182 0 168.6504 72.72989 168.85228 162.57394l-44.65172 0.09341431l0 0c-0.15045166 -65.22006 -55.71286 -118.01553 -124.20056 -118.01553z" fill-rule="evenodd"/><path fill="#ffffff" d="m-419.19403 440.43594l0 0c0 -18.23413 15.3280945 -33.01581 34.236237 -33.01581l0 0c9.080017 0 17.788116 3.4784546 24.208649 9.670105c6.4205627 6.1916504 10.027588 14.589355 10.027588 23.345703l0 0c0 18.2341 -15.3280945 33.015778 -34.236237 33.015778l0 0c-18.908142 0 -34.236237 -14.781677 -34.236237 -33.015778z" fill-rule="evenodd"/><path fill="#db2b00" d="m390.0683 985.49866l0 0c155.62793 0 281.88348 121.961914 282.21985 272.6222l-74.876526 0.15661621l0 0c-0.25006104 -109.368286 -93.00754 -197.9021 -207.34332 -197.9021z" fill-rule="evenodd"/><path fill="#db2b00" d="m393.85376 1205.8561l0 0c0 -30.580078 25.61496 -55.370117 57.212585 -55.370117l0 0c15.173737 0 29.725983 5.833618 40.455414 16.21753c10.729462 10.383911 16.757202 24.46753 16.757202 39.152588l0 0c0 30.580078 -25.61496 55.369995 -57.212616 55.369995l0 0c-31.597626 0 -57.212585 -24.789917 -57.212585 -55.369995z" fill-rule="evenodd"/></g></svg>