<svg width="535" height="104" viewBox="0 0 535 104" fill="none" xmlns="http://www.w3.org/2000/svg">
<path d="M47.7703 24.9583H84.179L56.9463 54.7016L83.6276 96.732H48.9124L35.8671 75.4559L30.3143 80.8512V96.732H0V0H30.3143V45.8209L47.7703 24.9583ZM132.546 23.4421C141.052 23.4421 147.478 25.8543 151.823 30.6786C156.175 35.5028 158.351 42.2798 158.351 51.0095V96.732H128.037V54.0419C128.037 51.8234 127.535 50.13 126.53 48.9616C125.533 47.7933 124.095 47.2091 122.218 47.2091C119.849 47.2091 117.948 47.9574 116.517 49.4539C115.087 50.9439 114.371 52.8079 114.371 55.0462V96.732H84.0569V24.9583H109.439L110.443 31.1019C110.837 30.5637 113.341 29.1525 117.955 26.8684C122.569 24.5842 127.433 23.4421 132.546 23.4421ZM289.064 23.4421C300.53 23.4421 309.946 25.9823 317.31 31.0625C324.675 36.1362 328.357 44.7937 328.357 57.0349H298.801C298.801 49.4736 295.555 45.6929 289.064 45.6929C282.579 45.6929 279.336 49.5655 279.336 57.3106V64.4978C279.336 72.1642 282.75 75.9974 289.576 75.9974C296.395 75.9974 299.805 72.1314 299.805 64.3994H328.357C328.357 76.7194 324.675 85.4425 317.31 90.5687C309.946 95.6883 300.53 98.2482 289.064 98.2482C276.724 98.2482 266.964 95.0681 259.783 88.7079C252.609 82.3477 249.022 73.0601 249.022 60.8451C249.022 48.6302 252.609 39.3426 259.783 32.9824C266.964 26.6222 276.724 23.4421 289.064 23.4421ZM381.73 24.9583H418.138L390.906 54.7016L417.587 96.732H382.872L369.826 75.4559L364.273 80.8512V96.732H333.959V0H364.273V45.8209L381.73 24.9583ZM418.902 22.3788V0.127991H449.216V22.3788H418.902ZM418.902 96.732V24.9583H449.216V96.732H418.902ZM508.471 23.4421C516.977 23.4421 523.403 25.8543 527.748 30.6786C532.1 35.5028 534.276 42.2798 534.276 51.0095V96.732H503.961V54.0419C503.961 51.8234 503.459 50.13 502.455 48.9616C501.457 47.7933 500.02 47.2091 498.143 47.2091C495.773 47.2091 493.873 47.9574 492.442 49.4539C491.011 50.9439 490.296 52.8079 490.296 55.0462V96.732H459.982V24.9583H485.363L486.367 31.1019C486.761 30.5637 489.265 29.1525 493.88 26.8684C498.494 24.5842 503.358 23.4421 508.471 23.4421Z" fill="#2F2A29"/>
<path fill-rule="evenodd" clip-rule="evenodd" d="M176.554 16.5808L248.04 35.7322L229.92 103.368L158.435 84.2161L176.554 16.5808Z" fill="#E32800"/>
<path fill-rule="evenodd" clip-rule="evenodd" d="M204.203 79.3435C213.294 79.3435 220.665 70.6714 220.665 59.9738C220.665 49.2762 213.294 40.6041 204.203 40.6041H266.459C275.551 40.6041 282.922 49.2762 282.922 59.9738C282.922 70.6714 275.551 79.3435 266.459 79.3435H204.203Z" fill="url(#paint0_linear_29_62)"/>
<path fill-rule="evenodd" clip-rule="evenodd" d="M204.203 79.3435C195.111 79.3435 187.74 70.6714 187.74 59.9738C187.74 49.2762 195.111 40.6041 204.203 40.6041C213.294 40.6041 220.665 49.2762 220.665 59.9738C220.665 70.6714 213.294 79.3435 204.203 79.3435Z" fill="white"/>
<defs>
<linearGradient id="paint0_linear_29_62" x1="187.74" y1="79.3435" x2="282.922" y2="79.3439" gradientUnits="userSpaceOnUse">
<stop stop-color="#BFBFBF"/>
<stop offset="0.5" stop-color="#BFBFBF" stop-opacity="0"/>
<stop offset="0.5" stop-color="white" stop-opacity="0"/>
<stop offset="1" stop-color="white" stop-opacity="0"/>
</linearGradient>
</defs>
</svg>
