<svg version="1.1" viewBox="0.0 0.0 768.0 768.0" fill="none" stroke="none" stroke-linecap="square" stroke-miterlimit="10" xmlns:xlink="http://www.w3.org/1999/xlink" xmlns="http://www.w3.org/2000/svg"><clipPath id="p.0"><path d="m0 0l768.0 0l0 768.0l-768.0 0l0 -768.0z" clip-rule="nonzero"/></clipPath><g clip-path="url(#p.0)"><path fill="#000000" fill-opacity="0.0" d="m0 0l768.0 0l0 768.0l-768.0 0z" fill-rule="evenodd"/><path fill="#000000" fill-opacity="0.0" d="m-789.0075 1821.255l746.1417 0l0 436.91345l-746.1417 0z" fill-rule="evenodd"/><path fill="#2f2a29" d="m-704.89813 1896.9207l50.09375 0l-37.46875 40.921875l36.703125 57.8125l-47.75 0l-17.9375 -29.25l-7.640625 7.40625l0 21.84375l-41.703125 0l0 -133.0625l41.703125 0l0 63.015625l24.0 -28.6875zm116.59424 -2.078125q17.5625 0 26.53125 9.953125q8.984375 9.9375 8.984375 27.96875l0 62.890625l-41.71875 0l0 -58.734375q0 -4.5625 -2.0625 -6.96875q-2.0625 -2.421875 -5.9375 -2.421875q-4.875 0 -7.828125 3.09375q-2.953125 3.078125 -2.953125 7.6875l0 57.34375l-41.703125 0l0 -98.734375l34.9375 0l1.359375 8.421875q0.796875 -1.078125 10.3125 -5.78125q9.53125 -4.71875 20.078125 -4.71875z" fill-rule="nonzero"/><path fill="#2f2a29" d="m-719.6794 2102.8425q23.65625 0 38.84375 10.484375q15.203125 10.46875 15.203125 35.734375l-40.671875 0q0 -15.609375 -13.375 -15.609375q-13.375 0 -13.375 15.984375l0 9.875q0 15.8125 14.0625 15.8125q14.078125 0 14.078125 -15.953125l39.28125 0q0 25.4375 -15.203125 36.0q-15.1875 10.5625 -38.84375 10.5625q-25.46875 0 -40.28125 -13.125q-14.8125 -13.125 -14.8125 -38.328125q0 -25.1875 14.8125 -38.3125q14.8125 -13.125 40.28125 -13.125zm127.44446 2.078125l50.09375 0l-37.46875 40.921875l36.703125 57.8125l-47.75 0l-17.9375 -29.25l-7.640625 7.40625l0 21.84375l-41.703125 0l0 -133.0625l41.703125 0l0 63.015625l24.0 -28.6875zm51.109863 -3.53125l0 -30.609375l41.71875 0l0 30.609375l-41.71875 0zm0 102.265625l0 -98.734375l41.71875 0l0 98.734375l-41.71875 0zm123.20267 -100.8125q17.5625 0 26.53125 9.953125q8.984375 9.9375 8.984375 27.96875l0 62.890625l-41.71875 0l0 -58.734375q0 -4.5625 -2.0625 -6.96875q-2.0625 -2.421875 -5.9375 -2.421875q-4.875 0 -7.828125 3.09375q-2.953125 3.078125 -2.953125 7.6875l0 57.34375l-41.703125 0l0 -98.734375l34.9375 0l1.359375 8.421875q0.796875 -1.078125 10.3125 -5.78125q9.53125 -4.71875 20.078125 -4.71875z" fill-rule="nonzero"/><path fill="#e32800" d="m-538.3877 1897.1918l94.6142 28.094482l-24.0 99.21265l-94.6142 -28.094482z" fill-rule="evenodd"/><path fill="#0000ff" d="m-1175.0413 557.2306l109.165405 0l0 120.97638l-109.165405 0z" fill-rule="evenodd"/><path stroke="#000000" stroke-width="1.0" stroke-linejoin="round" stroke-linecap="butt" d="m-1175.0413 557.2306l109.165405 0l0 120.97638l-109.165405 0z" fill-rule="evenodd"/><path fill="#d8ddff" d="m-956.68225 557.2306l109.165344 0l0 120.97638l-109.165344 0z" fill-rule="evenodd"/><path stroke="#000000" stroke-width="1.0" stroke-linejoin="round" stroke-linecap="butt" d="m-956.68225 557.2306l109.165344 0l0 120.97638l-109.165344 0z" fill-rule="evenodd"/><path fill="#c4ff6e" d="m-1065.8618 557.2306l109.165405 0l0 120.97638l-109.165405 0z" fill-rule="evenodd"/><path stroke="#000000" stroke-width="1.0" stroke-linejoin="round" stroke-linecap="butt" d="m-1065.8618 557.2306l109.165405 0l0 120.97638l-109.165405 0z" fill-rule="evenodd"/><path fill="#cccccc" d="m-847.5028 557.2306l109.165405 0l0 120.97638l-109.165405 0z" fill-rule="evenodd"/><path stroke="#000000" stroke-width="1.0" stroke-linejoin="round" stroke-linecap="butt" d="m-847.5028 557.2306l109.165405 0l0 120.97638l-109.165405 0z" fill-rule="evenodd"/><path fill="#f3f3f3" d="m-738.3233 557.2306l109.165405 0l0 120.97638l-109.165405 0z" fill-rule="evenodd"/><path stroke="#000000" stroke-width="1.0" stroke-linejoin="round" stroke-linecap="butt" d="m-738.3233 557.2306l109.165405 0l0 120.97638l-109.165405 0z" fill-rule="evenodd"/><path fill="#4f4e9e" d="m-1175.0413 691.1139l109.165405 0l0 120.97638l-109.165405 0z" fill-rule="evenodd"/><path stroke="#000000" stroke-width="1.0" stroke-linejoin="round" stroke-linecap="butt" d="m-1175.0413 691.1139l109.165405 0l0 120.97638l-109.165405 0z" fill-rule="evenodd"/><path fill="#4468bf" d="m-956.68225 691.1139l109.165344 0l0 120.97638l-109.165344 0z" fill-rule="evenodd"/><path stroke="#000000" stroke-width="1.0" stroke-linejoin="round" stroke-linecap="butt" d="m-956.68225 691.1139l109.165344 0l0 120.97638l-109.165344 0z" fill-rule="evenodd"/><path fill="#e45e5f" d="m-1065.8618 691.1139l109.165405 0l0 120.97638l-109.165405 0z" fill-rule="evenodd"/><path stroke="#000000" stroke-width="1.0" stroke-linejoin="round" stroke-linecap="butt" d="m-1065.8618 691.1139l109.165405 0l0 120.97638l-109.165405 0z" fill-rule="evenodd"/><path fill="#73c3c5" d="m-847.5028 691.1139l109.165405 0l0 120.97638l-109.165405 0z" fill-rule="evenodd"/><path stroke="#000000" stroke-width="1.0" stroke-linejoin="round" stroke-linecap="butt" d="m-847.5028 691.1139l109.165405 0l0 120.97638l-109.165405 0z" fill-rule="evenodd"/><path fill="#ebebeb" d="m-738.3233 691.1139l109.165405 0l0 120.97638l-109.165405 0z" fill-rule="evenodd"/><path stroke="#000000" stroke-width="1.0" stroke-linejoin="round" stroke-linecap="butt" d="m-738.3233 691.1139l109.165405 0l0 120.97638l-109.165405 0z" fill-rule="evenodd"/><path fill="#2f34ab" d="m-1175.0413 824.99835l109.165405 0l0 120.97638l-109.165405 0z" fill-rule="evenodd"/><path stroke="#000000" stroke-width="1.0" stroke-linejoin="round" stroke-linecap="butt" d="m-1175.0413 824.99835l109.165405 0l0 120.97638l-109.165405 0z" fill-rule="evenodd"/><path fill="#ed3800" d="m-956.68225 824.99835l109.165344 0l0 120.97638l-109.165344 0z" fill-rule="evenodd"/><path stroke="#000000" stroke-width="1.0" stroke-linejoin="round" stroke-linecap="butt" d="m-956.68225 824.99835l109.165344 0l0 120.97638l-109.165344 0z" fill-rule="evenodd"/><path fill="#6782d8" d="m-1065.8618 824.99835l109.165405 0l0 120.97638l-109.165405 0z" fill-rule="evenodd"/><path stroke="#000000" stroke-width="1.0" stroke-linejoin="round" stroke-linecap="butt" d="m-1065.8618 824.99835l109.165405 0l0 120.97638l-109.165405 0z" fill-rule="evenodd"/><path fill="#1d1d1d" d="m-847.5028 824.99835l109.165405 0l0 120.97638l-109.165405 0z" fill-rule="evenodd"/><path stroke="#000000" stroke-width="1.0" stroke-linejoin="round" stroke-linecap="butt" d="m-847.5028 824.99835l109.165405 0l0 120.97638l-109.165405 0z" fill-rule="evenodd"/><path fill="#ffffff" d="m-738.3233 824.99835l109.165405 0l0 120.97638l-109.165405 0z" fill-rule="evenodd"/><path stroke="#000000" stroke-width="1.0" stroke-linejoin="round" stroke-linecap="butt" d="m-738.3233 824.99835l109.165405 0l0 120.97638l-109.165405 0z" fill-rule="evenodd"/><path fill="#f17f00" d="m-900.9454 -101.88045l109.165344 0l0 120.97638l-109.165344 0z" fill-rule="evenodd"/><path stroke="#000000" stroke-width="1.0" stroke-linejoin="round" stroke-linecap="butt" d="m-900.9454 -101.88045l109.165344 0l0 120.97638l-109.165344 0z" fill-rule="evenodd"/><path fill="#d8ddff" d="m-682.5864 -101.88045l109.165405 0l0 120.97638l-109.165405 0z" fill-rule="evenodd"/><path stroke="#000000" stroke-width="1.0" stroke-linejoin="round" stroke-linecap="butt" d="m-682.5864 -101.88045l109.165405 0l0 120.97638l-109.165405 0z" fill-rule="evenodd"/><path fill="#ec2500" d="m-791.76587 -101.88045l109.165344 0l0 120.97638l-109.165344 0z" fill-rule="evenodd"/><path stroke="#000000" stroke-width="1.0" stroke-linejoin="round" stroke-linecap="butt" d="m-791.76587 -101.88045l109.165344 0l0 120.97638l-109.165344 0z" fill-rule="evenodd"/><path fill="#2f2a29" d="m-1005.4203 -101.88045l109.165344 0l0 120.97638l-109.165344 0z" fill-rule="evenodd"/><path stroke="#000000" stroke-width="1.0" stroke-linejoin="round" stroke-linecap="butt" d="m-1005.4203 -101.88045l109.165344 0l0 120.97638l-109.165344 0z" fill-rule="evenodd"/><path fill="#ffffff" d="m-1114.5999 -101.88045l109.165405 0l0 120.97638l-109.165405 0z" fill-rule="evenodd"/><path stroke="#000000" stroke-width="1.0" stroke-linejoin="round" stroke-linecap="butt" d="m-1114.5999 -101.88045l109.165405 0l0 120.97638l-109.165405 0z" fill-rule="evenodd"/><path fill="#e32800" d="m-541.65955 1468.2162l94.627655 28.092896l-23.98529 99.213135l-94.627655 -28.092896z" fill-rule="evenodd"/><defs><linearGradient id="p.1" gradientUnits="userSpaceOnUse" gradientTransform="matrix(0.0 -11.22476208182659 11.22476208182659 0.0 0.0 0.0)" spreadMethod="pad" x1="-139.00353956108836" y1="-46.93661365413028" x2="-139.00358340397614" y2="-35.71185157238931"><stop offset="0.0" stop-color="#bfbfbf"/><stop offset="0.5" stop-color="#bfbfbf" stop-opacity="0.0"/><stop offset="0.50000006" stop-color="#ffffff" stop-opacity="0.0"/><stop offset="1.0" stop-color="#ffffff" stop-opacity="0.0"/></linearGradient></defs><path fill="url(#p.1)" d="m-502.70377 1560.2817l0 0c13.336731 0 24.148315 -12.720947 24.148315 -28.413086c0 -15.692139 -10.811584 -28.413086 -24.148315 -28.413086l77.698425 0c13.336761 0 24.148315 12.720947 24.148315 28.413086c0 15.692139 -10.811554 28.413086 -24.148315 28.413086z" fill-rule="evenodd"/><defs><linearGradient id="p.2" gradientUnits="userSpaceOnUse" gradientTransform="matrix(0.0 -11.22476208182659 11.22476208182659 0.0 0.0 0.0)" spreadMethod="pad" x1="-139.00353956108836" y1="-46.93661365413028" x2="-139.00358340397614" y2="-35.71185157238931"><stop offset="0.0" stop-color="#bfbfbf"/><stop offset="0.5" stop-color="#bfbfbf" stop-opacity="0.0"/><stop offset="0.50000006" stop-color="#ffffff" stop-opacity="0.0"/><stop offset="1.0" stop-color="#ffffff" stop-opacity="0.0"/></linearGradient></defs><path fill="url(#p.2)" d="m-502.70377 1560.2817l0 0c-13.336761 0 -24.148346 -12.720947 -24.148346 -28.413086c0 -15.692139 10.811584 -28.413086 24.148346 -28.413086l0 0c13.336731 0 24.148315 12.720947 24.148315 28.413086c0 15.692139 -10.811584 28.413086 -24.148315 28.413086z" fill-rule="evenodd"/><path fill="#000000" fill-opacity="0.0" d="m-502.70377 1503.4556l0 0c13.336731 0 24.148315 12.720947 24.148315 28.413086c0 15.692139 -10.811584 28.413086 -24.148315 28.413086l0 0c-13.336761 0 -24.148346 -12.720947 -24.148346 -28.413086c0 -15.692139 10.811584 -28.413086 24.148346 -28.413086l77.698425 0c13.336761 0 24.148315 12.720947 24.148315 28.413086c0 15.692139 -10.811554 28.413086 -24.148315 28.413086l-77.698425 0" fill-rule="evenodd"/><path fill="#ffffff" fill-opacity="0.4" d="m-502.70377 1560.2817l0 0c-13.336761 0 -24.148346 -12.720947 -24.148346 -28.413086c0 -15.692139 10.811584 -28.413086 24.148346 -28.413086l0 0c13.336731 0 24.148315 12.720947 24.148315 28.413086c0 15.692139 -10.811584 28.413086 -24.148315 28.413086z" fill-rule="evenodd"/><path fill="#ffffff" d="m-526.8521 1531.8783l0 0c0 -15.692139 9.785889 -28.413086 21.857391 -28.413086l0 0c5.796936 0 11.356415 2.9935303 15.455475 8.3220215c4.09906 5.328491 6.401886 12.555542 6.401886 20.091064l0 0c0 15.692139 -9.785889 28.413208 -21.85736 28.413208l0 0c-12.071503 0 -21.857391 -12.721069 -21.857391 -28.413208z" fill-rule="evenodd"/><path fill="#ffffff" d="m-545.11316 1741.1819l0 0c20.254883 6.010498 32.290405 29.064575 26.900635 51.528442l-10.069824 -2.96521l0 0c4.0406494 -16.833008 -4.593628 -33.99536 -19.298035 -38.358765z" fill-rule="evenodd"/><path fill="#000000" fill-opacity="0.0" d="m-792.8868 1611.4075l746.1417 0l0 436.91333l-746.1417 0z" fill-rule="evenodd"/><path fill="#2f2a29" d="m-708.7774 1687.0731l50.09375 0l-37.46875 40.921875l36.703125 57.8125l-47.75 0l-17.9375 -29.25l-7.640625 7.40625l0 21.84375l-41.703125 0l0 -133.0625l41.703125 0l0 63.015625l24.0 -28.6875zm116.5943 -2.078125q17.5625 0 26.53125 9.953125q8.984375 9.9375 8.984375 27.96875l0 62.890625l-41.71875 0l0 -58.734375q0 -4.5625 -2.0625 -6.96875q-2.0625 -2.421875 -5.9375 -2.421875q-4.875 0 -7.828125 3.09375q-2.953125 3.078125 -2.953125 7.6875l0 57.34375l-41.703125 0l0 -98.734375l34.9375 0l1.359375 8.421875q0.796875 -1.078125 10.3125 -5.78125q9.53125 -4.71875 20.078125 -4.71875z" fill-rule="nonzero"/><path fill="#2f2a29" d="m-723.55865 1892.995q23.65625 0 38.84375 10.484375q15.203125 10.46875 15.203125 35.734375l-40.671875 0q0 -15.609375 -13.375 -15.609375q-13.375 0 -13.375 15.984375l0 9.875q0 15.8125 14.0625 15.8125q14.078125 0 14.078125 -15.953125l39.28125 0q0 25.4375 -15.203125 36.0q-15.1875 10.5625 -38.84375 10.5625q-25.46875 0 -40.28125 -13.125q-14.8125 -13.125 -14.8125 -38.328125q0 -25.1875 14.8125 -38.3125q14.8125 -13.125 40.28125 -13.125zm127.44446 2.078125l50.09375 0l-37.46875 40.921875l36.703125 57.8125l-47.75 0l-17.9375 -29.25l-7.640625 7.40625l0 21.84375l-41.703125 0l0 -133.0625l41.703125 0l0 63.015625l24.0 -28.6875zm51.109924 -3.53125l0 -30.609375l41.71872 0l0 30.609375l-41.71872 0zm0 102.265625l0 -98.734375l41.71872 0l0 98.734375l-41.71872 0zm123.20264 -100.8125q17.5625 0 26.53125 9.953125q8.984375 9.9375 8.984375 27.96875l0 62.890625l-41.71875 0l0 -58.734375q0 -4.5625 -2.0625 -6.96875q-2.0625 -2.421875 -5.9375 -2.421875q-4.875 0 -7.828125 3.09375q-2.953125 3.078125 -2.953125 7.6875l0 57.34375l-41.703125 0l0 -98.734375l34.9375 0l1.359375 8.421875q0.796875 -1.078125 10.3125 -5.78125q9.53125 -4.71875 20.078125 -4.71875z" fill-rule="nonzero"/><path fill="#ffffff" d="m-552.5707 1774.1604l0 0c1.1045532 -4.557373 5.334961 -7.2648926 9.4487915 -6.047241l0 0c1.9755859 0.5847168 3.6594849 2.0148926 4.6813354 3.9759521c1.0218506 1.9610596 1.2979126 4.2922363 0.7675171 6.480713l0 0c-1.1045532 4.557495 -5.334961 7.2648926 -9.448853 6.047241l0 0c-4.1138306 -1.2175293 -6.5533447 -5.89917 -5.4487915 -10.456665z" fill-rule="evenodd"/><path fill="#e32800" d="m-542.2669 1687.3442l94.61417 28.094482l-24.0 99.21265l-94.61417 -28.094482z" fill-rule="evenodd"/><path fill="#ffffff" d="m-592.25586 1779.9181l0 0c0 -22.830688 16.702942 -41.338623 37.307068 -41.338623l0 0c9.89447 0 19.383667 4.3553467 26.380127 12.107788c6.996399 7.7524414 10.927002 18.26709 10.927002 29.230835l0 0c0 22.830688 -16.703003 41.3385 -37.30713 41.3385l0 0c-20.604126 0 -37.307068 -18.507812 -37.307068 -41.3385z" fill-rule="evenodd"/><path fill="#ffffff" d="m-539.9896 1719.9106l0 0c30.760834 9.127808 49.09958 44.065674 41.050323 78.20679l-10.936401 -3.166626l0 0c6.6183167 -28.043823 -8.030365 -56.62256 -32.78885 -63.96924z" fill-rule="evenodd"/><path fill="#000000" fill-opacity="0.0" d="m-792.8868 1400.0001l746.1417 0l0 436.91333l-746.1417 0z" fill-rule="evenodd"/><path fill="#2f2a29" d="m-708.7774 1475.6658l50.09375 0l-37.46875 40.921875l36.703125 57.8125l-47.75 0l-17.9375 -29.25l-7.640625 7.40625l0 21.84375l-41.703125 0l0 -133.0625l41.703125 0l0 63.015625l24.0 -28.6875zm116.5943 -2.078125q17.5625 0 26.53125 9.953125q8.984375 9.9375 8.984375 27.96875l0 62.890625l-41.71875 0l0 -58.734375q0 -4.5625 -2.0625 -6.96875q-2.0625 -2.421875 -5.9375 -2.421875q-4.875 0 -7.828125 3.09375q-2.953125 3.078125 -2.953125 7.6875l0 57.34375l-41.703125 0l0 -98.734375l34.9375 0l1.359375 8.421875q0.796875 -1.078125 10.3125 -5.78125q9.53125 -4.71875 20.078125 -4.71875z" fill-rule="nonzero"/><path fill="#2f2a29" d="m-723.55865 1681.5875q23.65625 0 38.84375 10.484375q15.203125 10.46875 15.203125 35.734375l-40.671875 0q0 -15.609375 -13.375 -15.609375q-13.375 0 -13.375 15.984375l0 9.875q0 15.8125 14.0625 15.8125q14.078125 0 14.078125 -15.953125l39.28125 0q0 25.4375 -15.203125 36.0q-15.1875 10.5625 -38.84375 10.5625q-25.46875 0 -40.28125 -13.125q-14.8125 -13.125 -14.8125 -38.328125q0 -25.1875 14.8125 -38.3125q14.8125 -13.125 40.28125 -13.125zm127.44446 2.078125l50.09375 0l-37.46875 40.921875l36.703125 57.8125l-47.75 0l-17.9375 -29.25l-7.640625 7.40625l0 21.84375l-41.703125 0l0 -133.0625l41.703125 0l0 63.015625l24.0 -28.6875zm51.109924 -3.53125l0 -30.609375l41.71872 0l0 30.609375l-41.71872 0zm0 102.265625l0 -98.734375l41.71872 0l0 98.734375l-41.71872 0zm123.20264 -100.8125q17.5625 0 26.53125 9.953125q8.984375 9.9375 8.984375 27.96875l0 62.890625l-41.71875 0l0 -58.734375q0 -4.5625 -2.0625 -6.96875q-2.0625 -2.421875 -5.9375 -2.421875q-4.875 0 -7.828125 3.09375q-2.953125 3.078125 -2.953125 7.6875l0 57.34375l-41.703125 0l0 -98.734375l34.9375 0l1.359375 8.421875q0.796875 -1.078125 10.3125 -5.78125q9.53125 -4.71875 20.078125 -4.71875z" fill-rule="nonzero"/><path fill="#000000" fill-opacity="0.0" d="m-676.472 1611.4075l262.70868 0l0 226.83472l-262.70868 0z" fill-rule="evenodd"/><path fill="#2f2a29" d="m-591.37823 1684.995q17.5625 0 26.53125 9.953125q8.984375 9.9375 8.984375 27.96875l0 62.890625l-41.71875 0l0 -58.734375q0 -4.5625 -2.0625 -6.96875q-2.0625 -2.421875 -5.9375 -2.421875q-4.875 0 -7.828125 3.09375q-2.953125 3.078125 -2.953125 7.6875l0 57.34375l-41.703125 0l0 -98.734375l34.9375 0l1.359375 8.421875q0.796875 -1.078125 10.3125 -5.78125q9.53125 -4.71875 20.078125 -4.71875z" fill-rule="nonzero"/><path fill="#ffffff" d="m-535.89417 1937.0879l0 0c25.693573 7.627075 40.96341 36.87439 34.12973 65.37085l-12.773712 -3.7628174l0 0c5.1231384 -21.353271 -5.831543 -43.125854 -24.484314 -48.66284z" fill-rule="evenodd"/><path fill="#ffffff" d="m-529.3838 1910.1184l0 0c39.013702 11.574585 62.272705 55.88501 52.064087 99.18652l-13.870483 -4.015503l0 0c8.393829 -35.56848 -10.185028 -71.813965 -41.586 -81.130005z" fill-rule="evenodd"/><path fill="#ffffff" d="m-545.3474 1978.9264l0 0c1.3986816 -5.781616 6.762146 -9.212036 11.979553 -7.6621094l0 0c2.5055542 0.7442627 4.6416016 2.5610352 5.9382935 5.050537c1.2967529 2.489502 1.6478882 5.447876 0.9761963 8.224365l0 0c-1.3986816 5.781616 -6.762085 9.212036 -11.979553 7.6621094l0 0c-5.217407 -1.5499268 -8.313171 -7.493286 -6.9144897 -13.274902z" fill-rule="evenodd"/><path fill="#000000" fill-opacity="0.0" d="m-772.74615 1180.3712l746.1417 0l0 436.91333l-746.1417 0z" fill-rule="evenodd"/><path fill="#2f2a29" d="m-688.6368 1256.0369l50.09375 0l-37.46875 40.921875l36.703125 57.8125l-47.75 0l-17.9375 -29.25l-7.640625 7.40625l0 21.84375l-41.703125 0l0 -133.0625l41.703125 0l0 63.015625l24.0 -28.6875zm116.59424 -2.078125q17.5625 0 26.53125 9.953125q8.984375 9.9375 8.984375 27.96875l0 62.890625l-41.71875 0l0 -58.734375q0 -4.5625 -2.0625 -6.96875q-2.0625 -2.421875 -5.9375 -2.421875q-4.875 0 -7.828125 3.09375q-2.953125 3.078125 -2.953125 7.6875l0 57.34375l-41.703125 0l0 -98.734375l34.9375 0l1.359375 8.421875q0.796875 -1.078125 10.3125 -5.78125q9.53125 -4.71875 20.078125 -4.71875zm99.84424 0q25.46875 0 40.359375 13.21875q14.90625 13.203125 14.90625 38.21875q0 25.03125 -14.90625 38.25q-14.890625 13.203125 -40.359375 13.203125q-25.46875 0 -40.28125 -13.125q-14.8125 -13.125 -14.8125 -38.328125q0 -25.1875 14.8125 -38.3125q14.8125 -13.125 40.28125 -13.125zm0 30.609375q-13.375 0 -13.375 15.984375l0 9.875q0 15.8125 13.375 15.8125q13.546875 0 13.546875 -15.8125l0 -9.875q0 -15.984375 -13.546875 -15.984375zm115.60989 -30.609375q23.65625 0 38.84375 10.484375q15.203125 10.46875 15.203125 35.734375l-40.671875 0q0 -15.609375 -13.375 -15.609375q-13.375 0 -13.375 15.984375l0 9.875q0 15.8125 14.0625 15.8125q14.078125 0 14.078125 -15.953125l39.28125 0q0 25.4375 -15.203125 36.0q-15.1875 10.5625 -38.84375 10.5625q-25.46875 0 -40.28125 -13.125q-14.8125 -13.125 -14.8125 -38.328125q0 -25.1875 14.8125 -38.3125q14.8125 -13.125 40.28125 -13.125zm127.44447 2.078125l50.09375 0l-37.46875 40.921875l36.703125 57.8125l-47.75 0l-17.9375 -29.25l-7.640625 7.40625l0 21.84375l-41.70314 0l0 -133.0625l41.70314 0l0 63.015625l24.0 -28.6875zm51.109863 -3.53125l0 -30.609375l41.71875 0l0 30.609375l-41.71875 0zm0 102.265625l0 -98.734375l41.71875 0l0 98.734375l-41.71875 0z" fill-rule="nonzero"/><path fill="#2f2a29" d="m-687.6524 1461.9587q17.5625 0 26.53125 9.953125q8.984375 9.9375 8.984375 27.96875l0 62.890625l-41.71875 0l0 -58.734375q0 -4.5625 -2.0625 -6.96875q-2.0625 -2.421875 -5.9375 -2.421875q-4.875 0 -7.828125 3.09375q-2.953125 3.078125 -2.953125 7.6875l0 57.34375l-41.703125 0l0 -98.734375l34.9375 0l1.359375 8.421875q0.796875 -1.078125 10.3125 -5.78125q9.53125 -4.71875 20.078125 -4.71875z" fill-rule="nonzero"/><path fill="#db2b00" d="m-469.06552 1278.6656l0 0c0 -11.558838 8.453705 -20.9292 18.881897 -20.9292l0 0c5.007782 0 9.810486 2.2050781 13.351501 6.130005c3.5410461 3.9250488 5.5303955 9.248413 5.5303955 14.799194l0 0c0 11.558838 -8.453705 20.929077 -18.881897 20.929077l0 0c-10.428192 0 -18.881897 -9.370239 -18.881897 -20.929077z" fill-rule="evenodd"/><path fill="#db2b00" d="m-378.7726 910.8761l0 0c46.668762 0 84.52594 41.885803 84.61401 93.618286l-23.1893 0.04852295l0 0c-0.061645508 -38.944336 -27.544373 -70.47742 -61.424713 -70.47742z" fill-rule="evenodd"/><path fill="#db2b00" d="m-377.63614 986.5256l0 0c0 -10.497742 7.6781616 -19.007874 17.149628 -19.007874l0 0c4.54834 0 8.910431 2.0026245 12.126587 5.5672607c3.2161865 3.5646973 5.0230103 8.399414 5.0230103 13.440613l0 0c0 10.497742 -7.678131 19.007874 -17.149597 19.007874l0 0c-9.471466 0 -17.149628 -8.510132 -17.149628 -19.007874z" fill-rule="evenodd"/><path fill="#db2b00" d="m325.34308 910.87494l0 0c129.82947 0 235.14795 112.75702 235.40112 252.02728l-64.51401 0.1348877c-0.17922974 -103.69275 -76.63547 -187.64801 -170.88712 -187.64801z" fill-rule="evenodd"/><path fill="#db2b00" d="m328.5067 1114.5503l0 0c0 -28.266602 21.363434 -51.181152 47.716553 -51.181152l0 0c12.655212 0 24.792084 5.392212 33.740692 14.990601c8.948578 9.598267 13.97583 22.616455 13.97583 36.19055l0 0c0 28.26648 -21.363403 51.18103 -47.716522 51.18103l0 0c-26.353119 0 -47.716553 -22.91455 -47.716553 -51.18103z" fill-rule="evenodd"/><path fill="#e32800" d="m-586.0462 187.3202l298.80316 0l0 298.80316l-298.80316 0z" fill-rule="evenodd"/><path fill="#db2b00" d="m47.379524 583.7786l0 0c0 -75.571686 61.262962 -136.83463 136.83466 -136.83463l0 0c36.290802 0 71.09523 14.416443 96.756714 40.07794c25.661469 25.661469 40.07794 60.46591 40.07794 96.75668l0 0c0 75.57172 -61.26297 136.83466 -136.83466 136.83466l0 0c-75.571686 0 -136.83466 -61.26294 -136.83466 -136.83466z" fill-rule="evenodd"/><path fill="#ffffff" d="m-513.74884 241.2824l0 0c93.11182 0 168.65042 72.72987 168.8523 162.57393l-44.651733 0.09341431l0 0c-0.15045166 -65.22006 -55.71286 -118.0155 -124.20056 -118.0155z" fill-rule="evenodd"/><path fill="#ffffff" d="m-511.47485 372.68265l0 0c0 -18.23413 15.328064 -33.015778 34.236206 -33.015778l0 0c9.080017 0 17.788147 3.478424 24.20868 9.670074c6.420532 6.191681 10.027557 14.589386 10.027557 23.345703l0 0c0 18.23413 -15.3280945 33.01581 -34.236237 33.01581l0 0c-18.908142 0 -34.236206 -14.781677 -34.236206 -33.01581z" fill-rule="evenodd"/><path fill="#db2b00" d="m48.26847 46.947514l0 0c178.43375 -0.026298523 349.5677 70.95853 475.74472 197.33464c126.177 126.376114 197.05841 297.7885 197.04718 476.5188l-186.09375 -0.01171875l0 0c0.008117676 -129.36841 -51.26468 -253.44 -142.5361 -344.91342c-91.27142 -91.47345 -215.06287 -142.85359 -344.1347 -142.83455z" fill-rule="evenodd"/><path fill="#000000" fill-opacity="0.0" d="m894.73883 42.003937l894.5512 0l0 261.7953l-894.5512 0z" fill-rule="evenodd"/><path fill="#2f2a29" d="m991.55133 129.09769l57.78131 0l-43.21881 47.203125l42.34381 66.703125l-55.09381 0l-20.703125 -33.765625l-8.8125 8.5625l0 25.203125l-48.109375 0l0 -153.51562l48.109375 0l0 72.71875l27.703125 -33.109375zm134.54071 -2.40625q20.25 0 30.59375 11.484375q10.359375 11.484375 10.359375 32.265625l0 72.5625l-48.109375 0l0 -67.75q0 -5.28125 -2.390625 -8.0625q-2.375 -2.78125 -6.84375 -2.78125q-5.640625 0 -9.046875 3.5625q-3.40625 3.546875 -3.40625 8.875l0 66.15625l-48.109375 0l0 -113.90625l40.28125 0l1.59375 9.75q0.9375 -1.28125 11.921875 -6.71875q10.984375 -5.4375 23.15625 -5.4375z" fill-rule="nonzero"/><path fill="#ffffff" d="m1241.289 126.69144q29.390625 0 46.578125 15.25q17.1875 15.234375 17.1875 44.109375q0 28.875 -17.1875 44.125q-17.1875 15.234375 -46.578125 15.234375q-29.375 0 -46.46875 -15.140625q-17.078125 -15.140625 -17.078125 -44.21875q0 -29.078125 17.078125 -44.21875q17.09375 -15.140625 46.46875 -15.140625zm0 35.3125q-15.4375 0 -15.4375 18.4375l0 11.40625q0 18.25 15.4375 18.25q15.65625 0 15.65625 -18.25l0 -11.40625q0 -18.4375 -15.65625 -18.4375z" fill-rule="nonzero"/><path fill="#2f2a29" d="m1374.689 126.69144q27.296875 0 44.828125 12.09375q17.53125 12.078125 17.53125 41.21875l-46.90625 0q0 -18.0 -15.453125 -18.0q-15.4375 0 -15.4375 18.4375l0 11.40625q0 18.25 16.25 18.25q16.234375 0 16.234375 -18.40625l45.3125 0q0 29.328125 -17.53125 41.53125q-17.53125 12.1875 -44.828125 12.1875q-29.375 0 -46.46875 -15.140625q-17.078125 -15.140625 -17.078125 -44.21875q0 -29.078125 17.078125 -44.21875q17.09375 -15.140625 46.46875 -15.140625zm147.0625 2.40625l57.78125 0l-43.21875 47.203125l42.34375 66.703125l-55.09375 0l-20.703125 -33.765625l-8.8125 8.5625l0 25.203125l-48.109375 0l0 -153.51562l48.109375 0l0 72.71875l27.703125 -33.109375zm58.993774 -4.09375l0 -35.3125l48.109375 0l0 35.3125l-48.109375 0zm0 118.0l0 -113.90625l48.109375 0l0 113.90625l-48.109375 0zm142.14685 -116.3125q20.25 0 30.59375 11.484375q10.359375 11.484375 10.359375 32.265625l0 72.5625l-48.109375 0l0 -67.75q0 -5.28125 -2.390625 -8.0625q-2.375 -2.78125 -6.84375 -2.78125q-5.640625 0 -9.046875 3.5625q-3.40625 3.546875 -3.40625 8.875l0 66.15625l-48.109375 0l0 -113.90625l40.28125 0l1.59375 9.75q0.9375 -1.28125 11.921875 -6.71875q10.984375 -5.4375 23.15625 -5.4375z" fill-rule="nonzero"/><path fill="#db2b00" d="m1199.3844 226.96693l0 0c0 -11.35881 9.20813 -20.56694 20.566895 -20.56694l0 0c5.454712 0 10.686035 2.16687 14.542969 6.023926c3.8570557 3.8570404 6.023926 9.088318 6.023926 14.543015l0 0c0 11.358795 -9.20813 20.566925 -20.566895 20.566925l0 0c-11.358765 0 -20.566895 -9.20813 -20.566895 -20.566925z" fill-rule="evenodd"/><path fill="#db2b00" d="m1198.0188 145.11804l0 0c55.9458 0 101.33154 45.30504 101.44861 101.26808l-27.8031 0.058166504l0 0c-0.08483887 -40.630585 -33.032227 -73.52318 -73.64551 -73.52318z" fill-rule="evenodd"/></g></svg>