<svg width="46" height="32" viewBox="0 0 46 32" fill="none" xmlns="http://www.w3.org/2000/svg">
<path fill-rule="evenodd" clip-rule="evenodd" d="M6.68099 0L33.0391 7.06151L26.3581 32L0 24.9385L6.68099 0Z" fill="#E32800"/>
<path fill-rule="evenodd" clip-rule="evenodd" d="M16.8755 23.1419C20.2279 23.1419 22.9455 19.9443 22.9455 15.9999C22.9455 12.0554 20.2279 8.85785 16.8755 8.85785H39.8309C43.1832 8.85785 45.9009 12.0554 45.9009 15.9999C45.9009 19.9443 43.1832 23.1419 39.8309 23.1419H16.8755Z" fill="url(#paint0_linear_55_15)"/>
<path fill-rule="evenodd" clip-rule="evenodd" d="M16.8755 23.1419C13.5232 23.1419 10.8055 19.9443 10.8055 15.9999C10.8055 12.0554 13.5232 8.85785 16.8755 8.85785C20.2279 8.85785 22.9455 12.0554 22.9455 15.9999C22.9455 19.9443 20.2279 23.1419 16.8755 23.1419Z" fill="white"/>
<defs>
<linearGradient id="paint0_linear_55_15" x1="10.8054" y1="23.1419" x2="45.9009" y2="23.142" gradientUnits="userSpaceOnUse">
<stop stop-color="#BFBFBF"/>
<stop offset="0.5" stop-color="#BFBFBF" stop-opacity="0"/>
<stop offset="0.5" stop-color="white" stop-opacity="0"/>
<stop offset="1" stop-color="white" stop-opacity="0"/>
</linearGradient>
</defs>
</svg>
